<svg xmlns="http://www.w3.org/2000/svg" version="1.1" xmlns:xlink="http://www.w3.org/1999/xlink" width="512" height="512" x="0" y="0" viewBox="0 0 64 64" style="enable-background:new 0 0 512 512" xml:space="preserve" class="hovered-paths"><g><path fill="#325068" d="M34 6v3H4V6c0-1.1.9-2 2-2h26c1.1 0 2 .9 2 2z" opacity="1" data-original="#325068" class=""></path><path fill="#b8c3d5" d="M34 9v33c0 1.1-.9 2-2 2H6c-1.1 0-2-.9-2-2V9z" opacity="1" data-original="#b8c3d5" class=""></path><path fill="#9dabc4" d="M28 18.5H10c-.55 0-1-.45-1-1s.45-1 1-1h18c.55 0 1 .45 1 1s-.45 1-1 1zM28 24.5H10c-.55 0-1-.45-1-1s.45-1 1-1h18c.55 0 1 .45 1 1s-.45 1-1 1zM28 30.5H10c-.55 0-1-.45-1-1s.45-1 1-1h18c.55 0 1 .45 1 1s-.45 1-1 1zM28 36.5H10c-.55 0-1-.45-1-1s.45-1 1-1h18c.55 0 1 .45 1 1s-.45 1-1 1z" opacity="1" data-original="#9dabc4" class=""></path><path fill="#325068" d="M60 22v3H30v-3c0-1.1.9-2 2-2h26c1.1 0 2 .9 2 2z" opacity="1" data-original="#325068" class=""></path><path fill="#b8c3d5" d="M60 25v33c0 1.1-.9 2-2 2H32c-1.1 0-2-.9-2-2V25z" opacity="1" data-original="#b8c3d5" class=""></path><path fill="#9dabc4" d="M54 34.5H36c-.55 0-1-.45-1-1s.45-1 1-1h18c.55 0 1 .45 1 1s-.45 1-1 1zM54 40.5H36c-.55 0-1-.45-1-1s.45-1 1-1h18c.55 0 1 .45 1 1s-.45 1-1 1zM54 46.5H36c-.55 0-1-.45-1-1s.45-1 1-1h18c.55 0 1 .45 1 1s-.45 1-1 1zM54 52.5H36c-.55 0-1-.45-1-1s.45-1 1-1h18c.55 0 1 .45 1 1s-.45 1-1 1z" opacity="1" data-original="#9dabc4" class=""></path><path fill="#536882" d="M47 15v3H17v-3c0-1.1.9-2 2-2h26c1.1 0 2 .9 2 2z" opacity="1" data-original="#536882" class=""></path><path fill="#d3dce5" d="M47 18v33c0 1.1-.9 2-2 2H19c-1.1 0-2-.9-2-2V18z" opacity="1" data-original="#d3dce5" class="hovered-path"></path><g fill="#536882"><path d="M25 32.72c-.26 0-.51-.1-.71-.29a.996.996 0 0 1 0-1.41l3.66-3.66a.996.996 0 1 1 1.41 1.41l-3.66 3.66c-.2.2-.45.29-.71.29z" fill="#536882" opacity="1" data-original="#536882" class=""></path><path d="M28.66 32.72c-.26 0-.51-.1-.71-.29l-3.66-3.66a.996.996 0 1 1 1.41-1.41l3.66 3.66a.996.996 0 0 1-.71 1.7zM35.34 32.72c-.26 0-.51-.1-.71-.29a.996.996 0 0 1 0-1.41l3.66-3.66a.996.996 0 1 1 1.41 1.41l-3.66 3.66c-.2.2-.45.29-.71.29z" fill="#536882" opacity="1" data-original="#536882" class=""></path><path d="M39 32.72c-.26 0-.51-.1-.71-.29l-3.66-3.66a.996.996 0 1 1 1.41-1.41l3.66 3.66a.996.996 0 0 1-.71 1.7zM38.47 42.53c-.36 0-.7-.19-.88-.53-1.1-2.07-3.24-3.35-5.58-3.35s-4.48 1.28-5.58 3.35c-.26.49-.87.67-1.35.41a.996.996 0 0 1-.41-1.35c1.45-2.72 4.26-4.41 7.35-4.41s5.9 1.69 7.35 4.41c.26.49.08 1.09-.41 1.35-.15.08-.31.12-.47.12z" fill="#536882" opacity="1" data-original="#536882" class=""></path></g></g></svg>