<svg xmlns="http://www.w3.org/2000/svg" version="1.1" xmlns:xlink="http://www.w3.org/1999/xlink" width="512" height="512" x="0" y="0" viewBox="0 0 28 28" style="enable-background:new 0 0 512 512" xml:space="preserve" class=""><g><switch><g><path fill="currentColor" d="M20 26H8c-1.7 0-3-1.3-3-3V12c0-1.7 1.3-3 3-3h2c.6 0 1 .4 1 1s-.4 1-1 1H8c-.6 0-1 .4-1 1v11c0 .6.4 1 1 1h12c.6 0 1-.4 1-1V12c0-.6-.4-1-1-1h-2c-.6 0-1-.4-1-1s.4-1 1-1h2c1.7 0 3 1.3 3 3v11c0 1.7-1.3 3-3 3z" opacity="1" data-original="#858589" class=""></path><path fill="currentColor" d="M14 18c-.6 0-1-.4-1-1V7h-2c-.4 0-.8-.2-.9-.6s-.1-.8.2-1.1l3-3c.4-.4 1-.4 1.4 0l3 3c.3.3.4.7.2 1.1s-.5.6-.9.6h-2v10c0 .6-.4 1-1 1z" opacity="1" data-original="#0a0b12" class=""></path></g></switch></g></svg>