<svg width="389" height="178" viewBox="0 0 389 178" fill="none" xmlns="http://www.w3.org/2000/svg">
<path d="M294 162L294 177L388 169.5L294 162Z" fill="#558EFF"/>
<path d="M242.5 81.5L242.5 97.5L333.5 90L242.5 81.5Z" fill="#558EFF"/>
<path d="M290 1.00001L290 17.5L381 9L290 1.00001Z" fill="#558EFF"/>
<path d="M294 162L294 177L388 169.5L294 162Z" stroke="#558EFF"/>
<path d="M242.5 81.5L242.5 97.5L333.5 90L242.5 81.5Z" stroke="#558EFF"/>
<path d="M290 1.00001L290 17.5L381 9L290 1.00001Z" stroke="#558EFF"/>
<path d="M96 177L163 177L68 89.5L163 2L96 2.00001L0.999992 89.5L96 177Z" fill="#2F6CE6" stroke="#2F6CE6"/>
<path d="M196 177L264 177L168.5 89L263 2L196.5 2.00001L102.5 89.5L196 177Z" fill="#558EFF" stroke="#558EFF"/>
</svg>
