<svg width="380" height="380" viewBox="0 0 380 380" fill="none" xmlns="http://www.w3.org/2000/svg">
<rect width="380" height="380" rx="45" fill="#202020"/>
<g filter="url(#filter0_di_19_1159)">
<path d="M200.871 274.834L196.623 279.038C195.793 279.859 195.847 281.206 196.74 281.959L225.486 306.201C227.369 307.79 229.925 305.261 228.32 303.396L203.823 274.95C203.061 274.067 201.7 274.013 200.871 274.834Z" fill="#558EFF"/>
<path d="M215.016 211.048L210.304 215.71C209.473 216.533 209.529 217.882 210.426 218.634L239.431 242.966C241.304 244.537 243.846 242.049 242.278 240.179L217.985 211.185C217.229 210.282 215.853 210.219 215.016 211.048Z" fill="#558EFF"/>
<path d="M277.549 195.087L272.602 199.983C271.765 200.812 271.829 202.173 272.74 202.921L302.574 227.4C304.459 228.947 306.971 226.447 305.398 224.59L280.511 195.216C279.753 194.321 278.383 194.262 277.549 195.087Z" fill="#558EFF"/>
<path d="M200.871 274.834L196.623 279.038C195.793 279.859 195.847 281.206 196.74 281.959L225.486 306.201C227.369 307.79 229.925 305.261 228.32 303.396L203.823 274.95C203.061 274.067 201.7 274.013 200.871 274.834Z" stroke="#558EFF"/>
<path d="M215.016 211.048L210.304 215.71C209.473 216.533 209.529 217.882 210.426 218.634L239.431 242.966C241.304 244.537 243.846 242.049 242.278 240.179L217.985 211.185C217.229 210.282 215.853 210.219 215.016 211.048Z" stroke="#558EFF"/>
<path d="M277.549 195.087L272.602 199.983C271.765 200.812 271.829 202.173 272.74 202.921L302.574 227.4C304.459 228.947 306.971 226.447 305.398 224.59L280.511 195.216C279.753 194.321 278.383 194.262 277.549 195.087Z" stroke="#558EFF"/>
<path d="M98.9196 185.4L127.451 213.634C128.746 214.915 130.956 213.956 130.881 212.145L127.519 131.177C127.47 130.015 128.436 129.06 129.61 129.108L211.43 132.435C213.26 132.51 214.229 130.322 212.934 129.041L184.403 100.807C184.046 100.454 183.568 100.246 183.064 100.226L96.882 96.7209C95.7076 96.6731 94.7425 97.6282 94.7907 98.7904L98.3325 184.075C98.3532 184.574 98.5628 185.047 98.9196 185.4Z" fill="#2F6CE6" stroke="#2F6CE6"/>
<path d="M147.186 232.404C147.203 232.909 147.413 233.388 147.774 233.745L176.788 262.457C178.083 263.738 180.293 262.779 180.219 260.969L176.854 179.516C176.806 178.354 177.772 177.399 178.946 177.447L260.276 180.773C262.106 180.848 263.076 178.66 261.781 177.378L233.499 149.391C233.14 149.036 232.658 148.828 232.15 148.81L146.434 145.772C145.27 145.731 144.314 146.674 144.353 147.826L147.186 232.404Z" fill="#558EFF" stroke="#558EFF"/>
</g>
<defs>
<filter id="filter0_di_19_1159" x="74.2864" y="84.2218" width="252.115" height="250.985" filterUnits="userSpaceOnUse" color-interpolation-filters="sRGB">
<feFlood flood-opacity="0" result="BackgroundImageFix"/>
<feColorMatrix in="SourceAlpha" type="matrix" values="0 0 0 0 0 0 0 0 0 0 0 0 0 0 0 0 0 0 127 0" result="hardAlpha"/>
<feOffset dy="8"/>
<feGaussianBlur stdDeviation="10"/>
<feComposite in2="hardAlpha" operator="out"/>
<feColorMatrix type="matrix" values="0 0 0 0 0.184314 0 0 0 0 0.423529 0 0 0 0 0.901961 0 0 0 0.3 0"/>
<feBlend mode="normal" in2="BackgroundImageFix" result="effect1_dropShadow_19_1159"/>
<feBlend mode="normal" in="SourceGraphic" in2="effect1_dropShadow_19_1159" result="shape"/>
<feColorMatrix in="SourceAlpha" type="matrix" values="0 0 0 0 0 0 0 0 0 0 0 0 0 0 0 0 0 0 127 0" result="hardAlpha"/>
<feOffset dy="4"/>
<feGaussianBlur stdDeviation="2"/>
<feComposite in2="hardAlpha" operator="arithmetic" k2="-1" k3="1"/>
<feColorMatrix type="matrix" values="0 0 0 0 1 0 0 0 0 1 0 0 0 0 1 0 0 0 0.25 0"/>
<feBlend mode="normal" in2="shape" result="effect2_innerShadow_19_1159"/>
</filter>
</defs>
</svg>
